<svg width="14" height="14" viewBox="0 0 14 14" fill="none" xmlns="http://www.w3.org/2000/svg">
<path d="M0.333374 7.33332H13.6667V13.3333C13.6667 13.5101 13.5965 13.6797 13.4714 13.8047C13.3464 13.9298 13.1769 14 13 14H1.00004C0.82323 14 0.65366 13.9298 0.528636 13.8047C0.403612 13.6797 0.333374 13.5101 0.333374 13.3333V7.33332ZM10.3334 1.99999H13C13.1769 1.99999 13.3464 2.07023 13.4714 2.19525C13.5965 2.32028 13.6667 2.48985 13.6667 2.66666V5.99999H0.333374V2.66666C0.333374 2.48985 0.403612 2.32028 0.528636 2.19525C0.65366 2.07023 0.82323 1.99999 1.00004 1.99999H3.66671V0.666656H5.00004V1.99999H9.00004V0.666656H10.3334V1.99999Z" fill="#E61C44"/>
</svg>
