<svg width="24" height="19" viewBox="0 0 24 19" fill="none" xmlns="http://www.w3.org/2000/svg">
<path d="M20.317 2.11678C18.7873 1.43724 17.147 0.936573 15.4319 0.649823C15.4007 0.644289 15.3695 0.65812 15.3534 0.685781C15.1424 1.04906 14.9087 1.52298 14.7451 1.89548C12.9004 1.6281 11.0652 1.6281 9.25832 1.89548C9.09465 1.5147 8.85248 1.04906 8.64057 0.685781C8.62449 0.659042 8.59328 0.645212 8.56205 0.649823C6.84791 0.935657 5.20756 1.43632 3.67693 2.11678C3.66368 2.12232 3.65233 2.13154 3.64479 2.14352C0.533392 6.64398 -0.31895 11.0338 0.0991801 15.3692C0.101072 15.3904 0.11337 15.4107 0.130398 15.4236C2.18321 16.8832 4.17171 17.7693 6.12328 18.3566C6.15451 18.3658 6.18761 18.3548 6.20748 18.3299C6.66913 17.7195 7.08064 17.0759 7.43348 16.3991C7.4543 16.3595 7.43442 16.3125 7.39186 16.2968C6.73913 16.0571 6.1176 15.7648 5.51973 15.4329C5.47244 15.4061 5.46865 15.3406 5.51216 15.3093C5.63797 15.218 5.76382 15.123 5.88396 15.0271C5.90569 15.0096 5.93598 15.0059 5.96153 15.017C9.88928 16.7532 14.1415 16.7532 18.023 15.017C18.0485 15.005 18.0788 15.0087 18.1015 15.0262C18.2216 15.1221 18.3475 15.218 18.4742 15.3093C18.5177 15.3406 18.5149 15.4061 18.4676 15.4329C17.8697 15.7712 17.2482 16.0571 16.5945 16.2959C16.552 16.3116 16.533 16.3595 16.5538 16.3991C16.9143 17.075 17.3258 17.7186 17.7789 18.329C17.7978 18.3548 17.8319 18.3658 17.8631 18.3566C19.8241 17.7693 21.8126 16.8832 23.8654 15.4236C23.8834 15.4107 23.8948 15.3914 23.8967 15.3702C24.3971 10.3579 23.0585 6.0041 20.3482 2.14444C20.3416 2.13154 20.3303 2.12232 20.317 2.11678ZM8.02002 12.7294C6.8375 12.7294 5.86313 11.6783 5.86313 10.3875C5.86313 9.0966 6.8186 8.04549 8.02002 8.04549C9.23087 8.04549 10.1958 9.10583 10.1769 10.3875C10.1769 11.6783 9.22141 12.7294 8.02002 12.7294ZM15.9947 12.7294C14.8123 12.7294 13.8379 11.6783 13.8379 10.3875C13.8379 9.0966 14.7933 8.04549 15.9947 8.04549C17.2056 8.04549 18.1705 9.10583 18.1516 10.3875C18.1516 11.6783 17.2056 12.7294 15.9947 12.7294Z" fill="white"/>
</svg>
